<?xml version="1.0" encoding="utf-8"?>
<!-- Generator: Adobe Illustrator 27.9.0, SVG Export Plug-In . SVG Version: 6.00 Build 0)  -->
<svg version="1.1" id="Capa_1" xmlns="http://www.w3.org/2000/svg" xmlns:xlink="http://www.w3.org/1999/xlink" x="0px" y="0px"
	 viewBox="0 0 124.4 36" style="enable-background:new 0 0 124.4 36;" xml:space="preserve">
<style type="text/css">
	.st0{fill-rule:evenodd;clip-rule:evenodd;fill:url(#SVGID_1_);}
	.st1{fill:#FFFFFF;}
</style>
<linearGradient id="SVGID_1_" gradientUnits="userSpaceOnUse" x1="15" y1="35" x2="15" y2="5" gradientTransform="matrix(1 0 0 -1 0 38)">
	<stop  offset="0" style="stop-color:#877EFF"/>
	<stop  offset="0.4615" style="stop-color:#685DFF"/>
	<stop  offset="1" style="stop-color:#3121FF"/>
</linearGradient>
<path class="st0" d="M27.8,18c0,7.1-5.7,12.8-12.8,12.8C7.9,30.8,2.2,25.1,2.2,18S7.9,5.2,15,5.2C22.1,5.2,27.8,10.9,27.8,18z
	 M30,18c0,8.3-6.7,15-15,15C6.7,33,0,26.3,0,18C0,9.7,6.7,3,15,3C23.3,3,30,9.7,30,18z M23.3,11.3c0,0.9-0.7,1.6-1.6,1.6
	c-0.9,0-1.6-0.7-1.6-1.6s0.7-1.6,1.6-1.6C22.6,9.7,23.3,10.4,23.3,11.3z M10.5,19.2c0.7,2.5,3.2,4,5.7,3.3c2.5-0.7,4-3.2,3.3-5.7
	s-3.2-4-5.7-3.3S9.8,16.7,10.5,19.2z M8.4,19.8c1,3.6,4.7,5.8,8.4,4.8c3.6-1,5.8-4.7,4.8-8.4c-1-3.6-4.7-5.8-8.4-4.8
	C9.6,12.4,7.4,16.1,8.4,19.8z"/>
<g>
	<g>
		<path class="st1" d="M40.1,29V8.4h9.5c1.3,0,2.4,0.2,3.2,0.5c0.8,0.3,1.4,0.8,1.9,1.4c0.4,0.6,0.8,1.3,0.9,2.2
			c0.2,0.8,0.2,1.8,0.2,2.8c0,1-0.1,1.9-0.2,2.7c-0.1,0.8-0.4,1.6-0.9,2.2c-0.4,0.6-1.1,1.1-1.9,1.4s-1.9,0.5-3.3,0.5h-5.2v7H40.1z
			 M44.4,18.6h3.5c0.9,0,1.5,0,2-0.1c0.5-0.1,0.9-0.3,1.1-0.5c0.2-0.2,0.4-0.6,0.5-1c0.1-0.4,0.1-1,0.1-1.7c0-0.7,0-1.2-0.1-1.7
			c-0.1-0.4-0.2-0.8-0.4-1c-0.2-0.2-0.6-0.4-1.1-0.5c-0.5-0.1-1.2-0.1-2-0.1h-3.6V18.6z"/>
		<path class="st1" d="M65.6,29.3c-1.3,0-2.4-0.1-3.3-0.2c-0.9-0.2-1.6-0.4-2.1-0.8c-0.5-0.4-0.9-0.8-1.1-1.4
			c-0.2-0.6-0.4-1.4-0.4-2.2c-0.1-0.9-0.1-2-0.1-3.2s0-2.3,0.1-3.2c0.1-0.9,0.2-1.6,0.4-2.2c0.2-0.6,0.6-1.1,1.1-1.4
			c0.5-0.4,1.2-0.6,2.1-0.8c0.9-0.1,2-0.2,3.3-0.2c1.3,0,2.4,0.1,3.3,0.2c0.9,0.2,1.6,0.4,2.1,0.8c0.5,0.4,0.9,0.8,1.1,1.4
			c0.2,0.6,0.4,1.3,0.4,2.2c0.1,0.9,0.1,2,0.1,3.2s0,2.3-0.1,3.2c-0.1,0.9-0.2,1.6-0.4,2.2c-0.2,0.6-0.6,1.1-1.1,1.4
			c-0.5,0.4-1.2,0.6-2.1,0.8S67,29.3,65.6,29.3z M65.6,26.1c0.8,0,1.4,0,1.8-0.2c0.4-0.1,0.7-0.3,0.9-0.6c0.2-0.3,0.3-0.8,0.3-1.4
			c0-0.6,0.1-1.5,0.1-2.5c0-1,0-1.9-0.1-2.5c0-0.6-0.1-1.1-0.3-1.4c-0.2-0.3-0.5-0.5-0.9-0.6c-0.4-0.1-1-0.1-1.8-0.1
			c-0.7,0-1.3,0-1.7,0.1s-0.7,0.3-0.9,0.6c-0.2,0.3-0.3,0.8-0.3,1.4c0,0.6-0.1,1.5-0.1,2.5c0,1.1,0,1.9,0.1,2.5
			c0,0.6,0.1,1.1,0.3,1.4c0.2,0.3,0.5,0.5,0.9,0.6C64.3,26,64.9,26.1,65.6,26.1z"/>
		<path class="st1" d="M82,29.3c-0.6,0-1.3,0-2-0.1c-0.7,0-1.4-0.1-2.1-0.1c-0.7-0.1-1.3-0.1-1.9-0.2v-3c0.3,0,0.7,0,1.1,0.1
			c0.4,0,0.9,0.1,1.3,0.1c0.5,0,0.9,0,1.4,0.1c0.4,0,0.9,0,1.3,0c0.9,0,1.6,0,2-0.1c0.4-0.1,0.7-0.2,0.8-0.5
			c0.1-0.2,0.2-0.5,0.2-0.9c0-0.4,0-0.7-0.1-0.9c-0.1-0.2-0.2-0.3-0.4-0.4c-0.2-0.1-0.6-0.1-1-0.2l-3.6-0.4c-1-0.1-1.7-0.4-2.1-0.8
			c-0.5-0.4-0.8-0.9-1-1.5c-0.2-0.6-0.3-1.4-0.3-2.3c0-1,0.2-1.9,0.5-2.5c0.3-0.6,0.7-1.1,1.3-1.4c0.5-0.3,1.2-0.5,2-0.6
			c0.8-0.1,1.6-0.2,2.5-0.2c0.6,0,1.2,0,1.9,0.1c0.6,0,1.3,0.1,1.8,0.2c0.6,0.1,1.1,0.1,1.5,0.2v3c-0.5-0.1-1-0.1-1.5-0.1
			c-0.6,0-1.1-0.1-1.7-0.1c-0.5,0-1,0-1.4,0c-0.8,0-1.4,0-1.8,0.1c-0.4,0.1-0.7,0.2-0.9,0.4c-0.2,0.2-0.3,0.5-0.3,1
			c0,0.4,0,0.7,0.1,0.8c0.1,0.2,0.2,0.3,0.4,0.4c0.2,0.1,0.5,0.1,0.9,0.2l3.9,0.5c0.7,0.1,1.3,0.2,1.8,0.5c0.5,0.2,0.8,0.7,1.1,1.3
			c0.2,0.6,0.3,1.5,0.3,2.7c0,1-0.1,1.9-0.4,2.5c-0.3,0.6-0.7,1.1-1.2,1.5c-0.5,0.3-1.1,0.5-1.9,0.7C83.7,29.2,82.9,29.3,82,29.3z"
			/>
		<path class="st1" d="M92.8,29V16.9h-2.9v-3.2h2.9V9.3h4v4.4h3.5v3.2h-3.5V29H92.8z"/>
		<path class="st1" d="M103.4,29V8.4h4.3V29H103.4z"/>
		<path class="st1" d="M113.7,29V16.9h-2.9v-3.2h2.9V9.3h4v4.4h3.5v3.2h-3.5V29H113.7z"/>
	</g>
</g>
</svg>
